<?xml version="1.0" encoding="UTF-8"?>
<svg version="1.1" viewBox="0 0 26 27" xmlns="http://www.w3.org/2000/svg">
    <g transform="translate(-1214 -1732)" fill="#02328C" fill-rule="nonzero">
        <path d="m1215.7 1747.2c-0.93265 0-1.691-0.7759-1.691-1.7301 0-0.95281 0.75838-1.7301 1.691-1.7301h18.543l-8.6226-8.8232c-0.65763-0.67142-0.65763-1.7705 0-2.4419 0.65626-0.67281 1.7305-0.67281 2.3868 0l11.417 11.683 0.06127 0.0599 0.06263 0.06268 0.05718 0.06408 0.0531 0.06826 0.04902 0.07243 0.04901 0.06826 0.03949 0.07661 0.04084 0.07244 0.0354 0.07801 0.03132 0.07661 0.02587 0.08219 0.03131 0.10029 0.0177 0.0808 0.01362 0.10029 0.00817 0.08219 0.00953 0.08636v0.13094l-0.00953 0.11841-0.00817 0.08218-0.01362 0.0808-0.0177 0.08218-0.03131 0.11841-0.02587 0.08079-0.03132 0.07801-0.0354 0.07661-0.04084 0.07244-0.03949 0.07801-0.04901 0.06825-0.04902 0.07244-0.0531 0.06826-0.05718 0.06268-0.06263 0.06408-0.06127 0.0585-11.417 11.684c-0.65626 0.67143-1.7305 0.67143-2.3868 0-0.65763-0.67281-0.65763-1.7705 0-2.4433l8.6226-8.8232h-18.543z"/>
    </g>
</svg>
