<?xml version="1.0" encoding="UTF-8"?>
<svg viewBox="0 0 33 14" xmlns="http://www.w3.org/2000/svg">
    <path d="M.918 7.897A.908.908 0 0 1 0 7c0-.494.412-.897.918-.897H29.87l-4.678-4.575a.883.883 0 0 1 0-1.266.932.932 0 0 1 1.295 0l6.194 6.058.05.046.049.05.038.047.032.045.033.056.027.047.022.052.023.062.017.052.01.042.007.052.005.042.005.045v.068l-.005.061-.005.043-.007.042-.01.042-.017.062-.014.042-.026.059-.025.05-.028.049-.039.054-.043.054-.048.05-.05.046-6.195 6.059a.933.933 0 0 1-1.295 0 .883.883 0 0 1 0-1.267l4.678-4.575H.918z" fill="#02328C"/>
</svg>
