<svg version="1.1" viewBox="0 0 85 121" xmlns="http://www.w3.org/2000/svg">
    <defs>
        <linearGradient id="a" x1="37.277%" x2="62.123%" y1="89.388%" y2="8.939%">
            <stop stop-color="#F2CA00" offset="0"/>
            <stop stop-color="#F2E200" offset="1"/>
        </linearGradient>
    </defs>
    <g fill="none" fill-rule="evenodd">
        <g fill-rule="nonzero">
            <g fill="#000">
                <path d="m84.795 0v73.495c0 28.831 3.78 22.278-21.145 36.693-24.934 14.416-17.366 14.416-42.3 0-24.924-14.415-21.145-7.862-21.145-36.693v-73.495h84.59z"/>
            </g>
            <g fill="#FEFEFE">
                <path d="m84.795 0v73.495c0 28.831 3.78 22.278-21.145 36.693-24.934 14.416-17.366 14.416-42.3 0-24.924-14.415-21.145-7.862-21.145-36.693v-73.495h84.59z"/>
            </g>
            <path d="m22.22 71.898c0 0.96 0.691 1.142 1.169 0.324l13.41-23.585c0.254-0.445 0.64-0.637 1.158-0.637h2.002c0.508 0 0.7 0.323 0.447 0.768l-20.634 36.348c-0.295 0.515-0.772 0.444-0.772-0.192v-35.954c0-0.637 0.325-0.96 0.965-0.96h1.29c0.65 0 0.966 0.323 0.966 0.96v22.928h-1e-3zm16.103-9.488h17.16c3.616 0 6.725 1 9.163 2.688 0.528 0.363 0.58 0.899 0.122 1.344l-1.087 1.091c-0.457 0.455-0.904 0.445-1.361 0.131-1.86-1.283-4.186-2.051-6.838-2.051h-17.19l9.957 17.633h7.233c3.871 0 6.451-2.556 6.451-6.406s-2.58-6.417-6.45-6.417h-8.25 0.823-3.14c-0.995 0-1.706 0.02-2.265-0.95l-0.874-1.334c-0.284-0.485-0.03-0.92 0.508-0.92h13.197c5.811 0 9.682 3.84 9.682 9.62 0 5.77-3.87 9.62-9.682 9.62h-8.3c-0.528 0-0.853-0.1-1.158-0.646l-9.936-17.411c-0.386-0.637-0.904-0.637-1.29 0l-9.926 17.421c-0.264 0.455-0.65 0.647-1.168 0.647l-1.412-0.01c-0.772-0.01-1.087-0.506-0.712-1.152l20.827-36.671c0.254-0.445 0.64-0.637 1.158-0.637h2.002c0.518 0 0.7 0.323 0.447 0.768l-7.69 13.642h-1e-3zm6.848 28.86c-0.64 0-0.966 0.323-0.966 0.96v5.8c0 0.647-0.325 0.97-0.975 0.97h-1.29c-0.64 0-0.915-0.283-0.915-0.93v-8.296c0-1.152 0.691-1.708 1.971-1.708h12.486c6.777 0 11.287-4.496 11.287-11.226 0-2.638-0.772-4.942-2.001-6.801-0.386-0.455-0.315-0.9 0.132-1.344l1.036-0.9c0.447-0.454 0.965-0.454 1.351 0.061 1.677 2.314 2.713 5.386 2.713 8.984 0 8.66-5.811 14.43-14.518 14.43h-10.311zm3.87 6.76c0 0.637-0.325 0.97-0.975 0.97h-1.29c-0.64 0-0.965-0.323-0.965-0.97v-4.194c0-0.646 0.325-0.96 0.965-0.96h1.29c0.65 0 0.975 0.324 0.975 0.96v4.194zm-25.205-49.06c0-0.637 0.325-0.96 0.965-0.96h1.29c0.65 0 0.965 0.323 0.965 0.96v13.015c0 0.455-0.06 0.778-0.315 1.223l-2.133 3.658c-0.325 0.566-0.772 0.445-0.772-0.192v-17.704zm17.86 37.49c-0.518 0-0.904-0.192-1.158-0.647l-6.512-11.53c-0.254-0.455-0.254-0.839 0-1.283l0.965-1.607c0.254-0.445 0.65-0.445 0.904 0l8.128 14.309c0.253 0.444 0.06 0.768-0.458 0.768l-1.869-0.01z" fill="url(#a)"/>
        </g>
    </g>
</svg>