<svg version="1.1" viewBox="0 0 205 21" xmlns="http://www.w3.org/2000/svg">
        <g fill="#02328C" fill-rule="nonzero">
            <path d="m16.968 0.692c0-0.261-0.18-0.441-0.43-0.441h-4.42c-0.211 0-0.502 0.15-0.582 0.33l-7.447 8.22v-8.11c0.0057848-0.11837-0.038712-0.23368-0.12251-0.31749-0.083803-0.083803-0.19911-0.1283-0.31749-0.12251h-3.218c-0.25 0-0.431 0.18-0.431 0.44v19.689c0 0.26 0.18 0.44 0.431 0.44h3.217c0.11854 0.0060771 0.23412-0.03829 0.31815-0.12213 0.084028-0.083838 0.12866-0.19932 0.12285-0.31787v-5.644l3.538-3.88 5.863 9.634c0.08 0.18 0.371 0.33 0.582 0.33h3.768c0.25 0 0.431-0.18 0.431-0.44l-7.747-12.67 6.444-7.017v-1e-3zm13.971 8.83h-5.322v-5.502h5.322c1.303 0 2.356 1.122 2.356 2.786s-1.053 2.717-2.356 2.717v-1e-3zm1.734 10.857c0.11 0.22 0.291 0.44 0.582 0.44h3.798c0.11854 0.0060771 0.23412-0.03829 0.31815-0.12213 0.084028-0.083838 0.12866-0.19932 0.12285-0.31787l-3.879-7.568c2.215-0.973 3.769-3.218 3.769-6.045 0-3.799-2.756-6.515-6.154-6.515h-9.26c-0.11871-0.0063703-0.23456 0.037867-0.31882 0.12174-0.084253 0.083872-0.12902 0.19952-0.12318 0.31826v19.689c0 0.26 0.18 0.44 0.441 0.44h3.218c0.25 0 0.43-0.18 0.43-0.44v-7.097h3.438l3.618 7.097v-1e-3zm17.81-7.278 7.427-12.41c0-0.26-0.19-0.44-0.441-0.44h-3.758c-0.291 0-0.472 0.22-0.582 0.44l-4.71 7.96-4.881-7.96c-0.11-0.22-0.291-0.44-0.582-0.44h-3.758c-0.11854-0.0060771-0.23412 0.03829-0.31815 0.12213-0.084028 0.083837-0.12866 0.19932-0.12285 0.31787l7.637 12.45v7.238c0 0.26 0.18 0.44 0.431 0.44h3.227c0.25 0 0.431-0.18 0.431-0.44v-7.279 1e-3zm19.334-2.967h-4.931v-5.894h4.93c1.304 0 2.426 0.902 2.426 2.927 0 1.995-1.122 2.967-2.425 2.967zm-8.58-9.883c-0.11837-0.0057849-0.23368 0.038712-0.31749 0.12251s-0.1283 0.19911-0.12251 0.31749v19.689c0 0.26 0.18 0.44 0.44 0.44h3.218c0.25 0 0.43-0.18 0.43-0.44v-6.446h5.292c3.398 0 6.154-2.676 6.154-6.806 0-4.12-2.756-6.876-6.154-6.876h-8.94v-1e-3zm22.29 20.128c0 0.26 0.18 0.44 0.441 0.44h3.218c0.25 0 0.43-0.18 0.43-0.44v-16.4h4.962c0.25 0 0.43-0.18 0.43-0.43v-2.857c0-0.261-0.18-0.441-0.43-0.441h-14.002c-0.11837-0.0057849-0.23368 0.038712-0.31749 0.12251s-0.1283 0.19911-0.12251 0.31749v2.857c0 0.251 0.18 0.431 0.44 0.431h4.951v16.4zm21.97-20.379c-5.783 0-10.494 4.711-10.494 10.495 0 5.794 4.71 10.505 10.494 10.505 5.793 0 10.503-4.711 10.503-10.505 0-5.784-4.71-10.495-10.503-10.495zm-0.03 17.371c-3.769 0-6.375-2.997-6.375-6.766 0-3.759 2.606-6.806 6.375-6.806 3.758 0 6.444 3.047 6.444 6.806 0 3.77-2.686 6.766-6.444 6.766zm23.703-7.237h-4.921v-5.894h4.92c1.304 0 2.426 0.902 2.426 2.927 0 1.995-1.122 2.967-2.425 2.967zm-8.58-9.883c-0.25 0-0.43 0.18-0.43 0.44v19.689c0 0.26 0.18 0.44 0.43 0.44h3.228c0.25 0 0.43-0.18 0.43-0.44v-6.446h5.283c3.407 0 6.153-2.676 6.153-6.806 0-4.12-2.746-6.876-6.153-6.876h-8.94l-1e-3 -1e-3zm27.944-0.251c-5.793 0-10.493 4.711-10.493 10.495 0 5.794 4.7 10.505 10.493 10.505s10.494-4.711 10.494-10.505c0-5.784-4.7-10.495-10.494-10.495zm-0.04 17.371c-3.758 0-6.364-2.997-6.364-6.766 0-3.759 2.606-6.806 6.364-6.806 3.769 0 6.445 3.047 6.445 6.806 0 3.77-2.676 6.766-6.445 6.766zm28.995 0.22c0-0.25-0.18-0.43-0.43-0.43h-9.773v-16.471c0.005785-0.11837-0.038712-0.23368-0.12252-0.31749s-0.19911-0.1283-0.31748-0.12251h-3.218c-0.25 0-0.43 0.18-0.43 0.44v19.69c0 0.26 0.18 0.44 0.43 0.44h13.43c0.25 0 0.431-0.18 0.431-0.44v-2.787-2e-3zm8.219-16.9c0-0.26-0.18-0.44-0.431-0.44h-3.228c-0.25 0-0.43 0.18-0.43 0.44v19.689c0 0.26 0.18 0.44 0.43 0.44h3.228c0.25 0 0.43-0.18 0.43-0.44v-19.688l1e-3 -1e-3zm4.99 18.495c2.537 1.634 4.892 1.814 7.428 1.814 2.926 0 6.875-2.105 6.875-5.473 0-6.987-10.684-5.684-10.684-9.443 0-0.44 0.08-2.315 3.297-2.315 1.343 0 3.508 0.652 4.45 0.942 0.07 0.03 0.18 0.07 0.251 0.07 0.18 0 0.37-0.11 0.4-0.26l1.093-2.456c0.03-0.07 0.03-0.18 0.03-0.25-0.043183-0.16546-0.14661-0.30883-0.29-0.402-1.053-0.43-3.578-1.413-6.044-1.413-4.67 0-7.276 2.205-7.276 5.904 0 7.237 10.714 5.934 10.714 9.332 0 1.203-1.624 2.135-3.328 2.135-2.746 0-4.52-0.792-5.281-1.223-0.07-0.04-0.15-0.04-0.261-0.04-0.14 0-0.28 0.04-0.36 0.15l-1.193 2.316c-0.03 0.07-0.03 0.18-0.03 0.25 0 0.181 0.18 0.322 0.21 0.362h-1e-3z"/>
        </g>
</svg>
